<?xml version="1.0" standalone="no"?>
<!DOCTYPE svg PUBLIC "-//W3C//DTD SVG 20010904//EN"
 "http://www.w3.org/TR/2001/REC-SVG-20010904/DTD/svg10.dtd">
<svg version="1.0" xmlns="http://www.w3.org/2000/svg"
 width="700.000000pt" height="700.000000pt" viewBox="0 0 700.000000 700.000000"
 preserveAspectRatio="xMidYMid meet">
<metadata>
Created by potrace 1.15, written by Peter Selinger 2001-2017
</metadata>
<g transform="translate(0.000000,700.000000) scale(0.100000,-0.100000)"
fill="#000000" stroke="none">
<path d="M3253 6411 c-1021 -312 -1443 -445 -1472 -464 -57 -38 -107 -110
-131 -187 -20 -64 -20 -84 -18 -2245 l3 -2180 22 -41 c26 -48 92 -111 139
-130 28 -12 294 -14 1711 -14 1615 0 1680 1 1719 19 51 23 104 75 130 127 19
38 19 85 22 2208 l2 2169 -23 51 c-33 71 -69 110 -129 140 -48 24 -62 26 -185
26 l-132 0 -3 418 c-3 409 -3 418 -25 458 -31 58 -77 84 -144 83 -41 0 -393
-104 -1486 -438z m1434 -518 c-2 -2 -543 -2 -1202 -1 l-1198 3 1199 365 1199
365 3 -364 c1 -200 1 -366 -1 -368z m-526 -1008 l40 -26 -23 -37 c-12 -20
-105 -167 -206 -327 -100 -160 -181 -298 -180 -308 4 -27 54 -54 75 -41 9 5
108 145 220 309 111 164 207 303 211 307 14 14 84 -32 79 -51 -2 -9 -90 -155
-196 -325 -105 -169 -191 -316 -191 -327 0 -22 36 -49 65 -49 15 1 53 49 145
187 69 103 165 244 213 315 l88 129 40 -24 c22 -14 41 -28 41 -31 1 -21 -443
-728 -484 -772 -58 -61 -92 -78 -223 -107 l-99 -22 -39 -68 -39 -67 -63 87
-62 88 25 33 26 34 -24 118 c-36 181 -37 180 225 570 250 372 289 429 293 430
1 0 21 -11 43 -25z m-1569 -2 c8 -10 175 -266 370 -568 313 -485 419 -638 888
-1285 293 -404 538 -748 545 -765 24 -60 5 -88 -108 -162 -132 -86 -147 -91
-189 -71 -29 13 -85 105 -452 746 l-419 731 -36 -15 c-60 -26 -94 -34 -141
-33 -56 1 -96 15 -153 55 -41 29 -57 57 -236 410 -201 397 -235 477 -246 584
-12 122 46 305 116 364 36 31 41 31 61 9z m686 -1808 l71 -125 -261 -451
c-228 -393 -265 -453 -294 -467 -32 -15 -37 -15 -77 5 -23 12 -78 46 -122 75
-86 57 -106 88 -89 134 12 34 687 963 695 958 4 -2 39 -60 77 -129z"/>
</g>
</svg>
